<svg width="121" height="28" viewBox="0 0 121 28" fill="none" xmlns="http://www.w3.org/2000/svg">
<rect width="120.8" height="28" rx="3" fill="#FF0000"/>
<path fill-rule="evenodd" clip-rule="evenodd" d="M13.2 6.90499V18.9388C13.2093 18.978 13.2184 19.0173 13.2274 19.0566C13.2425 19.1221 13.2575 19.1876 13.2739 19.2527C13.4821 20.056 14.1685 20.619 15.0265 20.622C17.4985 20.6303 19.9703 20.6288 22.4422 20.6273C23.2868 20.6267 24.1313 20.6262 24.9759 20.6261C24.9964 20.6261 25.0172 20.6231 25.0474 20.6189C25.0656 20.6163 25.0872 20.6132 25.1142 20.61C24.9709 20.1011 24.8305 19.6022 24.671 19.0341C24.7463 19.1039 24.7941 19.1478 24.8343 19.1848C24.8493 19.1986 24.8632 19.2114 24.8771 19.2242C25.0559 19.3895 25.2347 19.5549 25.4134 19.7202C26.4856 20.7121 27.5577 21.7038 28.6309 22.6944C28.664 22.7248 28.7048 22.7471 28.7455 22.7693C28.764 22.7794 28.7824 22.7894 28.8 22.8002V6.90549C28.7925 6.87343 28.7854 6.84128 28.7784 6.80914C28.7626 6.73721 28.7468 6.66531 28.7261 6.59461C28.5073 5.85002 28.0185 5.39525 27.2455 5.24582C27.2065 5.23816 27.1679 5.22662 27.1293 5.21508C27.1124 5.21001 27.0954 5.20494 27.0784 5.2002H14.9221C14.8833 5.2097 14.8442 5.21858 14.8052 5.22745C14.7228 5.24621 14.6404 5.26494 14.56 5.28945C13.8387 5.50806 13.4041 5.98641 13.2486 6.71546C13.2398 6.75807 13.2283 6.80024 13.2168 6.84241C13.2111 6.86325 13.2054 6.88409 13.2 6.90499Z" fill="white"/>
<g clip-path="url(#clip0_577_2)">
<path d="M25.4022 10.4956C25.2916 10.0843 24.9673 9.76018 24.5561 9.64944C23.8049 9.44385 20.7999 9.44385 20.7999 9.44385C20.7999 9.44385 17.795 9.44385 17.0438 9.6416C16.6405 9.75227 16.3084 10.0844 16.1977 10.4956C16 11.2468 16 12.8046 16 12.8046C16 12.8046 16 14.3703 16.1977 15.1136C16.3085 15.5248 16.6326 15.8491 17.0439 15.9598C17.803 16.1654 20.8 16.1654 20.8 16.1654C20.8 16.1654 23.8049 16.1654 24.5561 15.9676C24.9674 15.857 25.2916 15.5327 25.4023 15.1216C25.6 14.3703 25.6 12.8125 25.6 12.8125C25.6 12.8125 25.6079 11.2468 25.4022 10.4956Z" fill="#FF0000"/>
<path d="M19.8432 14.2436L22.342 12.8044L19.8432 11.3652V14.2436Z" fill="white"/>
</g>
<path d="M43.6216 10.4616L41.5156 18H39.7336L38.3188 12.6324L36.8392 18L35.068 18.0108L33.0376 10.4616H34.6576L35.986 16.3152L37.5196 10.4616H39.2044L40.6516 16.2828L41.9908 10.4616H43.6216ZM44.0041 14.9868C44.0041 14.382 44.1229 13.8456 44.3605 13.3776C44.6053 12.9096 44.9329 12.5496 45.3433 12.2976C45.7609 12.0456 46.2253 11.9196 46.7365 11.9196C47.1829 11.9196 47.5717 12.0096 47.9029 12.1896C48.2413 12.3696 48.5113 12.5964 48.7129 12.87V12.0168H50.2357V18H48.7129V17.1252C48.5185 17.406 48.2485 17.64 47.9029 17.8272C47.5645 18.0072 47.1721 18.0972 46.7257 18.0972C46.2217 18.0972 45.7609 17.9676 45.3433 17.7084C44.9329 17.4492 44.6053 17.0856 44.3605 16.6176C44.1229 16.1424 44.0041 15.5988 44.0041 14.9868ZM48.7129 15.0084C48.7129 14.6412 48.6409 14.328 48.4969 14.0688C48.3529 13.8024 48.1585 13.6008 47.9137 13.464C47.6689 13.32 47.4061 13.248 47.1253 13.248C46.8445 13.248 46.5853 13.3164 46.3477 13.4532C46.1101 13.59 45.9157 13.7916 45.7645 14.058C45.6205 14.3172 45.5485 14.6268 45.5485 14.9868C45.5485 15.3468 45.6205 15.6636 45.7645 15.9372C45.9157 16.2036 46.1101 16.4088 46.3477 16.5528C46.5925 16.6968 46.8517 16.7688 47.1253 16.7688C47.4061 16.7688 47.6689 16.7004 47.9137 16.5636C48.1585 16.4196 48.3529 16.218 48.4969 15.9588C48.6409 15.6924 48.7129 15.3756 48.7129 15.0084ZM53.2568 13.2588V16.1532C53.2568 16.3548 53.3036 16.5024 53.3972 16.596C53.498 16.6824 53.6636 16.7256 53.894 16.7256H54.596V18H53.6456C52.3712 18 51.734 17.3808 51.734 16.1424V13.2588H51.0212V12.0168H51.734V10.5372H53.2568V12.0168H54.596V13.2588H53.2568ZM55.0787 15.0084C55.0787 14.3892 55.2047 13.8492 55.4567 13.3884C55.7087 12.9204 56.0579 12.5604 56.5043 12.3084C56.9507 12.0492 57.4619 11.9196 58.0379 11.9196C58.7795 11.9196 59.3915 12.1068 59.8739 12.4812C60.3635 12.8484 60.6911 13.3668 60.8567 14.0364H59.2259C59.1395 13.7772 58.9919 13.5756 58.7831 13.4316C58.5815 13.2804 58.3295 13.2048 58.0271 13.2048C57.5951 13.2048 57.2531 13.3632 57.0011 13.68C56.7491 13.9896 56.6231 14.4324 56.6231 15.0084C56.6231 15.5772 56.7491 16.02 57.0011 16.3368C57.2531 16.6464 57.5951 16.8012 58.0271 16.8012C58.6391 16.8012 59.0387 16.5276 59.2259 15.9804H60.8567C60.6911 16.6284 60.3635 17.1432 59.8739 17.5248C59.3843 17.9064 58.7723 18.0972 58.0379 18.0972C57.4619 18.0972 56.9507 17.9712 56.5043 17.7192C56.0579 17.46 55.7087 17.1 55.4567 16.6392C55.2047 16.1712 55.0787 15.6276 55.0787 15.0084ZM65.118 11.9304C65.5716 11.9304 65.9748 12.0312 66.3276 12.2328C66.6804 12.4272 66.954 12.7188 67.1484 13.1076C67.35 13.4892 67.4508 13.95 67.4508 14.49V18H65.9388V14.6952C65.9388 14.22 65.82 13.8564 65.5824 13.6044C65.3448 13.3452 65.0208 13.2156 64.6104 13.2156C64.1928 13.2156 63.8616 13.3452 63.6168 13.6044C63.3792 13.8564 63.2604 14.22 63.2604 14.6952V18H61.7484V10.008H63.2604V12.762C63.4548 12.5028 63.714 12.3012 64.038 12.1572C64.362 12.006 64.722 11.9304 65.118 11.9304ZM72.7905 13.2588V16.1532C72.7905 16.3548 72.8373 16.5024 72.9309 16.596C73.0317 16.6824 73.1973 16.7256 73.4277 16.7256H74.1297V18H73.1793C71.9049 18 71.2677 17.3808 71.2677 16.1424V13.2588H70.5549V12.0168H71.2677V10.5372H72.7905V12.0168H74.1297V13.2588H72.7905ZM80.6496 12.0168V18H79.1268V17.244C78.9324 17.5032 78.6768 17.7084 78.36 17.8596C78.0504 18.0036 77.712 18.0756 77.3448 18.0756C76.8768 18.0756 76.4628 17.9784 76.1028 17.784C75.7428 17.5824 75.4584 17.2908 75.2496 16.9092C75.048 16.5204 74.9472 16.0596 74.9472 15.5268V12.0168H76.4592V15.3108C76.4592 15.786 76.578 16.1532 76.8156 16.4124C77.0532 16.6644 77.3772 16.7904 77.7876 16.7904C78.2052 16.7904 78.5328 16.6644 78.7704 16.4124C79.008 16.1532 79.1268 15.786 79.1268 15.3108V12.0168H80.6496ZM83.6858 13.2588V16.1532C83.6858 16.3548 83.7326 16.5024 83.8262 16.596C83.927 16.6824 84.0926 16.7256 84.323 16.7256H85.025V18H84.0746C82.8002 18 82.163 17.3808 82.163 16.1424V13.2588H81.4502V12.0168H82.163V10.5372H83.6858V12.0168H85.025V13.2588H83.6858ZM88.5533 18.0972C87.9773 18.0972 87.4589 17.9712 86.9981 17.7192C86.5373 17.46 86.1737 17.0964 85.9073 16.6284C85.6481 16.1604 85.5185 15.6204 85.5185 15.0084C85.5185 14.3964 85.6517 13.8564 85.9181 13.3884C86.1917 12.9204 86.5625 12.5604 87.0305 12.3084C87.4985 12.0492 88.0205 11.9196 88.5965 11.9196C89.1725 11.9196 89.6945 12.0492 90.1625 12.3084C90.6305 12.5604 90.9977 12.9204 91.2641 13.3884C91.5377 13.8564 91.6745 14.3964 91.6745 15.0084C91.6745 15.6204 91.5341 16.1604 91.2533 16.6284C90.9797 17.0964 90.6053 17.46 90.1301 17.7192C89.6621 17.9712 89.1365 18.0972 88.5533 18.0972ZM88.5533 16.7796C88.8269 16.7796 89.0825 16.7148 89.3201 16.5852C89.5649 16.4484 89.7593 16.2468 89.9033 15.9804C90.0473 15.714 90.1193 15.39 90.1193 15.0084C90.1193 14.4396 89.9681 14.004 89.6657 13.7016C89.3705 13.392 89.0069 13.2372 88.5749 13.2372C88.1429 13.2372 87.7793 13.392 87.4841 13.7016C87.1961 14.004 87.0521 14.4396 87.0521 15.0084C87.0521 15.5772 87.1925 16.0164 87.4733 16.326C87.7613 16.6284 88.1213 16.7796 88.5533 16.7796ZM94.0796 12.9456C94.274 12.6288 94.526 12.3804 94.8356 12.2004C95.1524 12.0204 95.5124 11.9304 95.9156 11.9304V13.518H95.516C95.0408 13.518 94.6808 13.6296 94.436 13.8528C94.1984 14.076 94.0796 14.4648 94.0796 15.0192V18H92.5676V12.0168H94.0796V12.9456ZM97.4848 11.304C97.2184 11.304 96.9952 11.2212 96.8152 11.0556C96.6424 10.8828 96.556 10.6704 96.556 10.4184C96.556 10.1664 96.6424 9.9576 96.8152 9.792C96.9952 9.6192 97.2184 9.5328 97.4848 9.5328C97.7512 9.5328 97.9708 9.6192 98.1436 9.792C98.3236 9.9576 98.4136 10.1664 98.4136 10.4184C98.4136 10.6704 98.3236 10.8828 98.1436 11.0556C97.9708 11.2212 97.7512 11.304 97.4848 11.304ZM98.23 12.0168V18H96.718V12.0168H98.23ZM99.1191 14.9868C99.1191 14.382 99.2379 13.8456 99.4755 13.3776C99.7203 12.9096 100.048 12.5496 100.458 12.2976C100.876 12.0456 101.34 11.9196 101.852 11.9196C102.298 11.9196 102.687 12.0096 103.018 12.1896C103.356 12.3696 103.626 12.5964 103.828 12.87V12.0168H105.351V18H103.828V17.1252C103.634 17.406 103.364 17.64 103.018 17.8272C102.68 18.0072 102.287 18.0972 101.841 18.0972C101.337 18.0972 100.876 17.9676 100.458 17.7084C100.048 17.4492 99.7203 17.0856 99.4755 16.6176C99.2379 16.1424 99.1191 15.5988 99.1191 14.9868ZM103.828 15.0084C103.828 14.6412 103.756 14.328 103.612 14.0688C103.468 13.8024 103.274 13.6008 103.029 13.464C102.784 13.32 102.521 13.248 102.24 13.248C101.96 13.248 101.7 13.3164 101.463 13.4532C101.225 13.59 101.031 13.7916 100.88 14.058C100.736 14.3172 100.664 14.6268 100.664 14.9868C100.664 15.3468 100.736 15.6636 100.88 15.9372C101.031 16.2036 101.225 16.4088 101.463 16.5528C101.708 16.6968 101.967 16.7688 102.24 16.7688C102.521 16.7688 102.784 16.7004 103.029 16.5636C103.274 16.4196 103.468 16.218 103.612 15.9588C103.756 15.6924 103.828 15.3756 103.828 15.0084ZM108.123 10.008V18H106.611V10.008H108.123Z" fill="white"/>
<defs>
<clipPath id="clip0_577_2">
<rect width="9.6" height="9.6" fill="white" transform="translate(16 8)"/>
</clipPath>
</defs>
</svg>
